# xmcd
#
# Track frame offsets:
#	150
#	17198
#	31758
#	49882
#	66803
#	81207
#	96865
#	112839
#	130793
#	146422
#	161228
#	177998
#	193981
#	212077
#	226118
#	241046
#	255024
#	271140
#	285327
#	302185
#	318899
#
# Disc length: 4489 seconds
#
# Revision: 0
# Processed by: cddbd v1.5.2PL0 Copyright (c) Steve Scherf et al.
# Submitted via: dBpowerAMP V4.0
#
DISCID=15118715
DTITLE=Various Artist - ERG Nu Country Traxx Vol. 220 CAN
DYEAR=2012
DGENRE=Country
TTITLE0=Gary Allan - Every Storm (Runs Out Of Rain)
TTITLE1=Taylor Swift  - We Are Never Ever Getting Back Together [Country Mix]
TTITLE2=Darius Rucker - True Believers
TTITLE3=Kix Brooks - Bring It On Home [Single Remix]
TTITLE4=Dean Brody ft. Great Big Sea  - It's Friday
TTITLE5=Kacey Musgraves - Merry Go 'Round
TTITLE6=Jason Blaine - On a Night Like This
TTITLE7=Hayley - That's When You Know
TTITLE8=Gord Bamford - Disappearing Tail Lights
TTITLE9=Jerry Sereda - Everyday Man
TTITLE10=Tyler Farr - Hello Goodbye
TTITLE11=Craig Morgan - More Trucks Than Cars
TTITLE12=Thomas Rhett  - Beer With Jesus
TTITLE13=D Vincent Williams - Down By The River
TTITLE14=Alan Jackson - You Go Your Way
TTITLE15=Andy Gibson - Summer Back
TTITLE16=JT Hodges - Sleepy Little Town
TTITLE17=Joanna Smith - We Can't Be Friends
TTITLE18=Chelsea Bain - What If I
TTITLE19=Phoenix Stone - 100 Proof Moonshine
TTITLE20=Clay Walker - Jesse James
EXTD=
EXTT0=
EXTT1=
EXTT2=
EXTT3=
EXTT4=
EXTT5=
EXTT6=
EXTT7=
EXTT8=
EXTT9=
EXTT10=
EXTT11=
EXTT12=
EXTT13=
EXTT14=
EXTT15=
EXTT16=
EXTT17=
EXTT18=
EXTT19=
EXTT20=
PLAYORDER=
